<?xml version="1.0" encoding="UTF-8"?>
<svg enable-background="new 0 0 394.6 124.7" version="1.1" viewBox="0 0 394.6 124.7" xml:space="preserve" xmlns="http://www.w3.org/2000/svg" xmlns:cc="http://creativecommons.org/ns#" xmlns:dc="http://purl.org/dc/elements/1.1/" xmlns:rdf="http://www.w3.org/1999/02/22-rdf-syntax-ns#" xmlns:xlink="http://www.w3.org/1999/xlink"><metadata><rdf:RDF><cc:Work rdf:about=""><dc:format>image/svg+xml</dc:format><dc:type rdf:resource="http://purl.org/dc/dcmitype/StillImage"/><dc:title/></cc:Work></rdf:RDF></metadata><style type="text/css">
	.st0{fill:#212121;}
	.st1{fill:none;stroke:#FFFFFF;stroke-width:18.1401;stroke-linecap:round;stroke-linejoin:round;stroke-miterlimit:10;}
	.st2{clip-path:url(#SVGID_2_);}
	.st3{fill:#D91715;}
	.st4{fill:#1C67AF;}
	.st5{fill:#911C80;}
	.st6{fill:#CAC7B5;}
	.st7{fill:#6AB02E;}
	.st8{fill:#FBC502;}
	.st9{fill:none;stroke:#FFFFFF;stroke-width:15.615;stroke-linecap:round;stroke-linejoin:round;stroke-miterlimit:10;}
</style><path d="m210.1 95.1v5.2h-2.3v-34.4h2.3v15.7c2.1-3.2 5.1-5.9 9.9-5.9 5.8 0 11.7 4.7 11.7 12.5v0.1c0 7.8-5.9 12.6-11.7 12.6-4.8 0-7.9-2.7-9.9-5.8zm19.1-6.7c0-6.4-4.4-10.5-9.4-10.5s-9.8 4.2-9.8 10.3v0.1c0 6.2 4.8 10.3 9.8 10.3 5.2 0.1 9.4-3.7 9.4-10.2zm-50.3 2.6v-14.7h2.3v14.3c0 5 2.8 8.2 7.6 8.2 4.7 0 8.3-3.6 8.3-8.6v-13.9h2.3v24h-2.3v-4.5c-1.6 2.8-4.3 5-8.7 5-5.9 0.1-9.5-4-9.5-9.8zm-10.2-25.1h2.3v34.4h-2.3zm-28.9 22.5c0-6.8 5.4-12.7 12.3-12.7 4.5 0 7.4 2.1 9.6 4.4l-1.7 1.7c-2.1-2.1-4.4-4-8-4-5.5 0-9.7 4.6-9.7 10.3v0.1c0 5.8 4.4 10.4 9.9 10.4 3.4 0 6-1.7 8.1-4l1.6 1.4c-2.5 2.8-5.4 4.8-9.8 4.8-7 0.1-12.3-5.7-12.3-12.4zm229.6-23.1 0.8-2c1.3 0.6 2.3 0.9 4.1 0.9 2.5 0 4.1-1.5 5.9-5.7l-11.6-23.9h2.7l10 21.5 8.7-21.5h2.5l-10.4 24.9c-2.1 5-4.6 6.8-8 6.8-1.8 0-3.1-0.3-4.7-1zm-26.5-18.6c0-6.8 5.4-12.7 12.3-12.7 4.5 0 7.4 2.1 9.6 4.4l-1.7 1.7c-2.1-2.1-4.4-4-8-4-5.5 0-9.7 4.6-9.7 10.3v0.1c0 5.8 4.4 10.4 9.9 10.4 3.4 0 6-1.7 8.1-4l1.6 1.4c-2.5 2.8-5.4 4.8-9.8 4.8-7 0.1-12.3-5.7-12.3-12.4zm-26.7 4.9c0-5.1 4.3-7.9 10.5-7.9 3.3 0 5.7 0.4 8 1v-1c0-4.9-3-7.4-7.9-7.4-2.9 0-5.3 0.8-7.5 1.9l-0.8-2c2.6-1.2 5.2-2.1 8.5-2.1s5.8 0.9 7.6 2.6c1.6 1.6 2.5 3.8 2.5 6.8v15h-2.3v-4c-1.7 2.3-4.6 4.6-9.2 4.6-4.6 0.1-9.4-2.5-9.4-7.5zm18.5-2v-2.7c-2-0.5-4.7-1.1-8.2-1.1-5.1 0-7.9 2.3-7.9 5.6v0.1c0 3.5 3.3 5.5 7 5.5 4.9 0 9.1-3 9.1-7.4zm-34.9-15h2.3v6.8c1.9-4.3 5.9-7.4 10.7-7.2v2.5h-0.2c-5.6 0-10.4 4.2-10.4 12v9.9h-2.3v-24zm-28.6 12.1c0-6.8 5.4-12.7 12.3-12.7 4.5 0 7.4 2.1 9.6 4.4l-1.7 1.7c-2.1-2.1-4.4-4-8-4-5.5 0-9.7 4.6-9.7 10.3v0.1c0 5.8 4.4 10.4 9.9 10.4 3.4 0 6-1.7 8.1-4l1.6 1.4c-2.5 2.8-5.4 4.8-9.8 4.8-6.9 0.1-12.3-5.7-12.3-12.4zm-30.1 0c0-6.8 5.2-12.7 12.4-12.7 7.1 0 12.3 5.8 12.3 12.5v0.1c0 6.7-5.2 12.6-12.4 12.6s-12.3-5.8-12.3-12.5zm22.2 0c0-5.9-4.3-10.5-9.9-10.5-5.7 0-9.8 4.7-9.8 10.3v0.1c0 5.8 4.3 10.4 9.9 10.4 5.7 0 9.8-4.7 9.8-10.3zm-64.3-12.1h2.3v4.3c1.6-2.5 3.7-4.9 8-4.9 4.2 0 6.8 2.4 8.1 5.2 1.6-2.7 4.1-5.2 8.7-5.2 5.7 0 9.2 4 9.2 10v14.6h-2.3v-14.3c0-5.2-2.7-8.2-7.1-8.2-4.1 0-7.6 3.1-7.6 8.5v14h-2.3v-14.4c0-5-2.7-8.1-7-8.1s-7.7 3.8-7.7 8.6v13.9h-2.3zm-28.6 12c0-7.1 4.9-12.6 11.4-12.6 6.7 0 11 5.5 11 12.6v0.9h-19.9c0.4 6 4.7 9.5 9.4 9.5 3.7 0 6.3-1.7 8.3-3.8l1.6 1.4c-2.5 2.6-5.3 4.5-9.9 4.5-6.4 0.1-11.9-5-11.9-12.5zm20-1.1c-0.3-4.9-3.1-9.3-8.6-9.3-4.8 0-8.4 4-8.9 9.3zm-50.5 1.2c0-7.9 5.9-12.7 11.7-12.7 4.8 0 7.9 2.7 9.9 5.8v-15.6h2.3v34.4h-2.3v-5.4c-2.1 3.2-5.1 5.9-9.9 5.9-5.8 0.1-11.7-4.6-11.7-12.4zm21.7-0.1c0-6.3-4.8-10.4-9.8-10.4-5.2 0-9.4 3.8-9.4 10.3v0.1c0 6.3 4.4 10.4 9.4 10.4s9.8-4.2 9.8-10.4z" fill="#fff"/><polyline class="st1" points="24.6 62.9 49.7 89.3 100.2 36.4" fill="none" stroke="#fff" stroke-linecap="round" stroke-linejoin="round" stroke-miterlimit="10" stroke-width="18.14"/><defs><circle id="SVGID_1_" cx="62.4" cy="62.4" r="62.4"/></defs><clipPath id="SVGID_2_"><use width="100%" height="100%" xlink:href="#SVGID_1_"/></clipPath><g class="st2" clip-path="url(#SVGID_2_)"><rect id="Rectangle-1_27_" class="st3" x="83.2" width="20.8" height="20.8" fill="#d91715"/><rect id="Rectangle-2_27_" class="st4" x="62.4" width="20.8" height="20.8" fill="#1c67af"/><rect id="Rectangle-5_27_" class="st5" x="20.9" width="20.8" height="20.8" fill="#911c80"/><rect id="Rectangle-7_27_" class="st6" x="104" width="20.8" height="20.8" fill="#cac7b5"/><rect id="Rectangle-6_27_" class="st7" x=".1" width="20.8" height="20.8" fill="#6ab02e"/><rect id="Rectangle-3_27_" class="st8" x="41.6" width="20.8" height="20.8" fill="#fbc502"/><rect id="Rectangle-18_26_" class="st3" x="83.2" y="41.6" width="20.8" height="20.8" fill="#d91715"/><rect id="Rectangle-13_26_" class="st4" x=".1" y="41.6" width="20.8" height="20.8" fill="#1c67af"/><rect id="Rectangle-14_26_" class="st5" x="20.9" y="41.6" width="20.8" height="20.8" fill="#911c80"/><rect id="Rectangle-15_26_" class="st6" x="41.6" y="41.6" width="20.8" height="20.8" fill="#cac7b5"/><rect id="Rectangle-16_26_" class="st7" x="62.4" y="41.6" width="20.8" height="20.8" fill="#6ab02e"/><rect id="Rectangle-17_26_" class="st8" x="104" y="41.6" width="20.8" height="20.8" fill="#fbc502"/><rect id="Rectangle-24_26_" class="st3" x=".1" y="62.4" width="20.8" height="20.8" fill="#d91715"/><rect id="Rectangle-19_26_" class="st4" x="104" y="62.4" width="20.8" height="20.8" fill="#1c67af"/><rect id="Rectangle-20_26_" class="st5" x="41.6" y="62.4" width="20.8" height="20.8" fill="#911c80"/><rect id="Rectangle-21_26_" class="st6" x="83.2" y="62.4" width="20.8" height="20.8" fill="#cac7b5"/><rect id="Rectangle-22_26_" class="st7" x="20.9" y="62.4" width="20.8" height="20.8" fill="#6ab02e"/><rect id="Rectangle-23_26_" class="st8" x="62.4" y="62.4" width="20.8" height="20.8" fill="#fbc502"/><rect id="Rectangle-30_26_" class="st3" x="83.2" y="83.1" width="20.8" height="20.8" fill="#d91715"/><rect id="Rectangle-25_26_" class="st4" x="62.4" y="83.1" width="20.8" height="20.8" fill="#1c67af"/><rect id="Rectangle-26_26_" class="st5" x="20.9" y="83.1" width="20.8" height="20.8" fill="#911c80"/><rect id="Rectangle-27_26_" class="st6" x="41.6" y="83.1" width="20.8" height="20.8" fill="#cac7b5"/><rect id="Rectangle-28_26_" class="st7" x="104" y="83.1" width="20.8" height="20.8" fill="#6ab02e"/><rect id="Rectangle-29_26_" class="st8" x=".1" y="83.1" width="20.8" height="20.8" fill="#fbc502"/><rect id="Rectangle-39_26_" class="st3" x=".1" y="103.9" width="20.8" height="20.8" fill="#d91715"/><rect id="Rectangle-31_26_" class="st4" x="41.6" y="103.9" width="20.8" height="20.8" fill="#1c67af"/><rect id="Rectangle-35_26_" class="st5" x="62.4" y="103.9" width="20.8" height="20.8" fill="#911c80"/><rect id="Rectangle-36_26_" class="st6" x="83.2" y="103.9" width="20.8" height="20.8" fill="#cac7b5"/><rect id="Rectangle-37_26_" class="st7" x="20.9" y="103.9" width="20.8" height="20.8" fill="#6ab02e"/><rect id="Rectangle-38_26_" class="st8" x="104" y="103.9" width="20.8" height="20.8" fill="#fbc502"/><rect id="Rectangle-12_26_" class="st3" x="41.6" y="20.8" width="20.8" height="20.8" fill="#d91715"/><rect id="Rectangle-4_26_" class="st4" x="20.9" y="20.8" width="20.8" height="20.8" fill="#1c67af"/><rect id="Rectangle-8_26_" class="st5" x="104" y="20.8" width="20.8" height="20.8" fill="#911c80"/><rect id="Rectangle-9_26_" class="st6" x="62.4" y="20.8" width="20.8" height="20.8" fill="#cac7b5"/><rect id="Rectangle-10_26_" class="st7" x="83.2" y="20.8" width="20.8" height="20.8" fill="#6ab02e"/><rect id="Rectangle-11_26_" class="st8" x=".1" y="20.8" width="20.8" height="20.8" fill="#fbc502"/></g><polyline class="st9" points="29.8 64.4 51.5 87.1 94.9 41.6" fill="none" stroke="#fff" stroke-linecap="round" stroke-linejoin="round" stroke-miterlimit="10" stroke-width="15.615"/></svg>
