<?xml version="1.0" encoding="utf-8"?>
<!-- Generator: Adobe Illustrator 21.0.2, SVG Export Plug-In . SVG Version: 6.00 Build 0)  -->
<svg version="1.1" id="Layer_1" xmlns="http://www.w3.org/2000/svg" xmlns:xlink="http://www.w3.org/1999/xlink" x="0px" y="0px"
	 viewBox="0 0 394.6 124.7" style="enable-background:new 0 0 394.6 124.7;" xml:space="preserve">
<style type="text/css">
	.st0{fill:#212121;}
	.st1{fill:none;stroke:#FFFFFF;stroke-width:18.1401;stroke-linecap:round;stroke-linejoin:round;stroke-miterlimit:10;}
	.st2{clip-path:url(#SVGID_2_);}
	.st3{fill:#D91715;}
	.st4{fill:#1C67AF;}
	.st5{fill:#911C80;}
	.st6{fill:#CAC7B5;}
	.st7{fill:#6AB02E;}
	.st8{fill:#FBC502;}
	.st9{fill:none;stroke:#FFFFFF;stroke-width:15.615;stroke-linecap:round;stroke-linejoin:round;stroke-miterlimit:10;}
</style>
<g>
	<g>
		<g>
			<path class="st0" d="M139.9,46.7L139.9,46.7c0-7.9,5.9-12.7,11.7-12.7c4.8,0,7.9,2.7,9.9,5.8V24.2h2.3v34.4h-2.3v-5.4
				c-2.1,3.2-5.1,5.9-9.9,5.9C145.8,59.2,139.9,54.5,139.9,46.7z M161.6,46.6L161.6,46.6c0-6.3-4.8-10.4-9.8-10.4
				c-5.2,0-9.4,3.8-9.4,10.3v0.1c0,6.3,4.4,10.4,9.4,10.4C156.8,57,161.6,52.8,161.6,46.6z"/>
			<path class="st0" d="M170.4,46.6L170.4,46.6c0-7.1,4.9-12.6,11.4-12.6c6.7,0,11,5.5,11,12.6c0,0.4,0,0.6,0,0.9h-19.9
				c0.4,6,4.7,9.5,9.4,9.5c3.7,0,6.3-1.7,8.3-3.8l1.6,1.4c-2.5,2.6-5.3,4.5-9.9,4.5C175.9,59.2,170.4,54.1,170.4,46.6z M190.4,45.5
				c-0.3-4.9-3.1-9.3-8.6-9.3c-4.8,0-8.4,4-8.9,9.3H190.4z"/>
			<path class="st0" d="M199,34.6h2.3v4.3c1.6-2.5,3.7-4.9,8-4.9c4.2,0,6.8,2.4,8.1,5.2c1.6-2.7,4.1-5.2,8.7-5.2c5.7,0,9.2,4,9.2,10
				v14.6h-2.3V44.3c0-5.2-2.7-8.2-7.1-8.2c-4.1,0-7.6,3.1-7.6,8.5v14h-2.3V44.2c0-5-2.7-8.1-7-8.1c-4.3,0-7.7,3.8-7.7,8.6v13.9H199
				V34.6z"/>
			<path class="st0" d="M241.1,46.7L241.1,46.7c0-6.8,5.2-12.7,12.4-12.7c7.1,0,12.3,5.8,12.3,12.5v0.1c0,6.7-5.2,12.6-12.4,12.6
				C246.2,59.2,241.1,53.4,241.1,46.7z M263.3,46.7L263.3,46.7c0-5.9-4.3-10.5-9.9-10.5c-5.7,0-9.8,4.7-9.8,10.3v0.1
				c0,5.8,4.3,10.4,9.9,10.4C259.2,57,263.3,52.3,263.3,46.7z"/>
			<path class="st0" d="M271.2,46.7L271.2,46.7c0-6.8,5.4-12.7,12.3-12.7c4.5,0,7.4,2.1,9.6,4.4l-1.7,1.7c-2.1-2.1-4.4-4-8-4
				c-5.5,0-9.7,4.6-9.7,10.3v0.1c0,5.8,4.4,10.4,9.9,10.4c3.4,0,6-1.7,8.1-4l1.6,1.4c-2.5,2.8-5.4,4.8-9.8,4.8
				C276.6,59.2,271.2,53.4,271.2,46.7z"/>
			<path class="st0" d="M299.8,34.6h2.3v6.8c1.9-4.3,5.9-7.4,10.7-7.2v2.5h-0.2c-5.6,0-10.4,4.2-10.4,12v9.9h-2.3V34.6z"/>
			<path class="st0" d="M316.2,51.6L316.2,51.6c0-5.1,4.3-7.9,10.5-7.9c3.3,0,5.7,0.4,8,1v-1c0-4.9-3-7.4-7.9-7.4
				c-2.9,0-5.3,0.8-7.5,1.9l-0.8-2c2.6-1.2,5.2-2.1,8.5-2.1c3.3,0,5.8,0.9,7.6,2.6c1.6,1.6,2.5,3.8,2.5,6.8v15h-2.3v-4
				c-1.7,2.3-4.6,4.6-9.2,4.6C321,59.2,316.2,56.6,316.2,51.6z M334.7,49.6v-2.7c-2-0.5-4.7-1.1-8.2-1.1c-5.1,0-7.9,2.3-7.9,5.6v0.1
				c0,3.5,3.3,5.5,7,5.5C330.5,57,334.7,54,334.7,49.6z"/>
			<path class="st0" d="M342.9,46.7L342.9,46.7c0-6.8,5.4-12.7,12.3-12.7c4.5,0,7.4,2.1,9.6,4.4l-1.7,1.7c-2.1-2.1-4.4-4-8-4
				c-5.5,0-9.7,4.6-9.7,10.3v0.1c0,5.8,4.4,10.4,9.9,10.4c3.4,0,6-1.7,8.1-4l1.6,1.4c-2.5,2.8-5.4,4.8-9.8,4.8
				C348.2,59.2,342.9,53.4,342.9,46.7z"/>
			<path class="st0" d="M369.4,65.3l0.8-2c1.3,0.6,2.3,0.9,4.1,0.9c2.5,0,4.1-1.5,5.9-5.7l-11.6-23.9h2.7l10,21.5l8.7-21.5h2.5
				l-10.4,24.9c-2.1,5-4.6,6.8-8,6.8C372.3,66.3,371,66,369.4,65.3z"/>
		</g>
	</g>
	<g>
		<g>
			<path class="st0" d="M139.8,88.4L139.8,88.4c0-6.8,5.4-12.7,12.3-12.7c4.5,0,7.4,2.1,9.6,4.4l-1.7,1.7c-2.1-2.1-4.4-4-8-4
				c-5.5,0-9.7,4.6-9.7,10.3v0.1c0,5.8,4.4,10.4,9.9,10.4c3.4,0,6-1.7,8.1-4l1.6,1.4c-2.5,2.8-5.4,4.8-9.8,4.8
				C145.1,100.9,139.8,95.1,139.8,88.4z"/>
			<path class="st0" d="M168.7,65.9h2.3v34.4h-2.3V65.9z"/>
			<path class="st0" d="M178.9,91V76.3h2.3v14.3c0,5,2.8,8.2,7.6,8.2c4.7,0,8.3-3.6,8.3-8.6V76.3h2.3v24h-2.3v-4.5
				c-1.6,2.8-4.3,5-8.7,5C182.5,100.9,178.9,96.8,178.9,91z"/>
			<path class="st0" d="M210.1,95.1v5.2h-2.3V65.9h2.3v15.7c2.1-3.2,5.1-5.9,9.9-5.9c5.8,0,11.7,4.7,11.7,12.5v0.1
				c0,7.8-5.9,12.6-11.7,12.6C215.2,100.9,212.1,98.2,210.1,95.1z M229.2,88.4L229.2,88.4c0-6.4-4.4-10.5-9.4-10.5
				c-5,0-9.8,4.2-9.8,10.3v0.1c0,6.2,4.8,10.3,9.8,10.3C225,98.7,229.2,94.9,229.2,88.4z"/>
		</g>
	</g>
	<g>
		<polyline class="st1" points="24.6,62.9 49.7,89.3 100.2,36.4 		"/>
		<g>
			<defs>
				<circle id="SVGID_1_" cx="62.4" cy="62.4" r="62.4"/>
			</defs>
			<clipPath id="SVGID_2_">
				<use xlink:href="#SVGID_1_"  style="overflow:visible;"/>
			</clipPath>
			<g class="st2">
				<rect id="Rectangle-1_27_" x="83.2" class="st3" width="20.8" height="20.8"/>
				<rect id="Rectangle-2_27_" x="62.4" class="st4" width="20.8" height="20.8"/>
				<rect id="Rectangle-5_27_" x="20.9" class="st5" width="20.8" height="20.8"/>
				<rect id="Rectangle-7_27_" x="104" class="st6" width="20.8" height="20.8"/>
				<rect id="Rectangle-6_27_" x="0.1" class="st7" width="20.8" height="20.8"/>
				<rect id="Rectangle-3_27_" x="41.6" class="st8" width="20.8" height="20.8"/>
				<rect id="Rectangle-18_26_" x="83.2" y="41.6" class="st3" width="20.8" height="20.8"/>
				<rect id="Rectangle-13_26_" x="0.1" y="41.6" class="st4" width="20.8" height="20.8"/>
				<rect id="Rectangle-14_26_" x="20.9" y="41.6" class="st5" width="20.8" height="20.8"/>
				<rect id="Rectangle-15_26_" x="41.6" y="41.6" class="st6" width="20.8" height="20.8"/>
				<rect id="Rectangle-16_26_" x="62.4" y="41.6" class="st7" width="20.8" height="20.8"/>
				<rect id="Rectangle-17_26_" x="104" y="41.6" class="st8" width="20.8" height="20.8"/>
				<rect id="Rectangle-24_26_" x="0.1" y="62.4" class="st3" width="20.8" height="20.8"/>
				<rect id="Rectangle-19_26_" x="104" y="62.4" class="st4" width="20.8" height="20.8"/>
				<rect id="Rectangle-20_26_" x="41.6" y="62.4" class="st5" width="20.8" height="20.8"/>
				<rect id="Rectangle-21_26_" x="83.2" y="62.4" class="st6" width="20.8" height="20.8"/>
				<rect id="Rectangle-22_26_" x="20.9" y="62.4" class="st7" width="20.8" height="20.8"/>
				<rect id="Rectangle-23_26_" x="62.4" y="62.4" class="st8" width="20.8" height="20.8"/>
				<rect id="Rectangle-30_26_" x="83.2" y="83.1" class="st3" width="20.8" height="20.8"/>
				<rect id="Rectangle-25_26_" x="62.4" y="83.1" class="st4" width="20.8" height="20.8"/>
				<rect id="Rectangle-26_26_" x="20.9" y="83.1" class="st5" width="20.8" height="20.8"/>
				<rect id="Rectangle-27_26_" x="41.6" y="83.1" class="st6" width="20.8" height="20.8"/>
				<rect id="Rectangle-28_26_" x="104" y="83.1" class="st7" width="20.8" height="20.8"/>
				<rect id="Rectangle-29_26_" x="0.1" y="83.1" class="st8" width="20.8" height="20.8"/>
				<rect id="Rectangle-39_26_" x="0.1" y="103.9" class="st3" width="20.8" height="20.8"/>
				<rect id="Rectangle-31_26_" x="41.6" y="103.9" class="st4" width="20.8" height="20.8"/>
				<rect id="Rectangle-35_26_" x="62.4" y="103.9" class="st5" width="20.8" height="20.8"/>
				<rect id="Rectangle-36_26_" x="83.2" y="103.9" class="st6" width="20.8" height="20.8"/>
				<rect id="Rectangle-37_26_" x="20.9" y="103.9" class="st7" width="20.8" height="20.8"/>
				<rect id="Rectangle-38_26_" x="104" y="103.9" class="st8" width="20.8" height="20.8"/>
				<rect id="Rectangle-12_26_" x="41.6" y="20.8" class="st3" width="20.8" height="20.8"/>
				<rect id="Rectangle-4_26_" x="20.9" y="20.8" class="st4" width="20.8" height="20.8"/>
				<rect id="Rectangle-8_26_" x="104" y="20.8" class="st5" width="20.8" height="20.8"/>
				<rect id="Rectangle-9_26_" x="62.4" y="20.8" class="st6" width="20.8" height="20.8"/>
				<rect id="Rectangle-10_26_" x="83.2" y="20.8" class="st7" width="20.8" height="20.8"/>
				<rect id="Rectangle-11_26_" x="0.1" y="20.8" class="st8" width="20.8" height="20.8"/>
			</g>
		</g>
		<polyline class="st9" points="29.8,64.4 51.5,87.1 94.9,41.6 		"/>
	</g>
</g>
</svg>
